<svg xmlns="http://www.w3.org/2000/svg" viewBox="0 0 800 600" role="img" aria-label="Foto del vehículo (placeholder)">
  <defs>
    <linearGradient id="bg2" x1="0" y1="0" x2="0" y2="1">
      <stop offset="0%" stop-color="#202a38"/>
      <stop offset="100%" stop-color="#0e141d"/>
    </linearGradient>
    <radialGradient id="spot2" cx="50%" cy="42%" r="55%">
      <stop offset="0%" stop-color="#c7ced8" stop-opacity="0.12"/>
      <stop offset="70%" stop-color="#c7ced8" stop-opacity="0"/>
    </radialGradient>
  </defs>
  <rect width="800" height="600" fill="url(#bg2)"/>
  <rect width="800" height="600" fill="url(#spot2)"/>
  <g fill="none" stroke="#6a7686" stroke-width="3" stroke-linecap="round" stroke-linejoin="round" opacity="0.85">
    <path d="M140 350 q24 -110 150 -116 l150 0 q90 0 140 70 l46 64 70 16 q30 8 30 38 v24 h-40"/>
    <path d="M140 350 h-22 v44 q0 14 14 14 h36"/>
    <path d="M290 422 h236"/>
    <circle cx="248" cy="422" r="44"/>
    <circle cx="566" cy="422" r="44"/>
    <path d="M300 250 l24 70 220 0"/>
  </g>
  <text x="400" y="505" text-anchor="middle" font-family="Inter, system-ui, sans-serif" font-size="26" letter-spacing="3" fill="#828c9b">FOTO DEL VEHÍCULO</text>
  <text x="400" y="537" text-anchor="middle" font-family="Inter, system-ui, sans-serif" font-size="15" letter-spacing="1" fill="#525c6a">Reemplazar en /public/vehicles/</text>
</svg>
